<svg xmlns="http://www.w3.org/2000/svg" viewBox="0 0 420 520"><defs>
<linearGradient id="body" x1="0" y1="0" x2="1" y2="1"><stop offset="0" stop-color="#f4f7fb"/><stop offset=".55" stop-color="#c5d0e2"/><stop offset="1" stop-color="#8d9cb8"/></linearGradient>
<linearGradient id="drw" x1="0" y1="0" x2="0" y2="1"><stop offset="0" stop-color="#ffffff"/><stop offset="1" stop-color="#dde5f1"/></linearGradient>
<linearGradient id="gold" x1="0" y1="0" x2="1" y2="1"><stop offset="0" stop-color="#e6d09a"/><stop offset=".5" stop-color="#c8a96a"/><stop offset="1" stop-color="#a98548"/></linearGradient>
<linearGradient id="shine" x1="0" y1="0" x2="1" y2="0"><stop offset="0" stop-color="#fff" stop-opacity=".7"/><stop offset="1" stop-color="#fff" stop-opacity="0"/></linearGradient></defs>
<rect x="76" y="496" width="34" height="14" rx="3" fill="#1a2440"/><rect x="310" y="496" width="34" height="14" rx="3" fill="#1a2440"/>
<rect x="60" y="262" width="300" height="240" rx="12" fill="url(#body)" stroke="#8d9cb8" stroke-width="1.5"/>
<rect x="60" y="262" width="64" height="240" rx="12" fill="url(#shine)"/>
<rect x="80" y="290.0" width="260" height="95.0" rx="7" fill="url(#drw)" stroke="#b4c1d8" stroke-width="1.2"/><rect x="166.0" y="306.0" width="88" height="22" rx="3" fill="#0b1f4a"/><text x="210" y="321.0" text-anchor="middle" font-family="Poppins,Arial,sans-serif" font-size="10" font-weight="600" letter-spacing="2.5" fill="#dcc48d">VIVORTI</text><rect x="150" y="343.0" width="120" height="11" rx="5.5" fill="url(#gold)"/><rect x="80" y="396.0" width="260" height="95.0" rx="7" fill="url(#drw)" stroke="#b4c1d8" stroke-width="1.2"/><rect x="166.0" y="412.0" width="88" height="22" rx="3" fill="#0b1f4a"/><text x="210" y="427.0" text-anchor="middle" font-family="Poppins,Arial,sans-serif" font-size="10" font-weight="600" letter-spacing="2.5" fill="#dcc48d">VIVORTI</text><rect x="150" y="449.0" width="120" height="11" rx="5.5" fill="url(#gold)"/><circle cx="322" cy="310" r="6" fill="url(#gold)"/><circle cx="322" cy="310" r="2" fill="#7a5f2e"/></svg>