<svg xmlns="http://www.w3.org/2000/svg" viewBox="0 0 420 520"><defs>
<linearGradient id="body" x1="0" y1="0" x2="1" y2="1"><stop offset="0" stop-color="#fbf6ea"/><stop offset=".55" stop-color="#e2d3b2"/><stop offset="1" stop-color="#a8946b"/></linearGradient>
<linearGradient id="drw" x1="0" y1="0" x2="0" y2="1"><stop offset="0" stop-color="#fffdf8"/><stop offset="1" stop-color="#efe4cc"/></linearGradient>
<linearGradient id="gold" x1="0" y1="0" x2="1" y2="1"><stop offset="0" stop-color="#e6d09a"/><stop offset=".5" stop-color="#c8a96a"/><stop offset="1" stop-color="#a98548"/></linearGradient>
<linearGradient id="shine" x1="0" y1="0" x2="1" y2="0"><stop offset="0" stop-color="#fff" stop-opacity=".7"/><stop offset="1" stop-color="#fff" stop-opacity="0"/></linearGradient></defs>
<rect x="76" y="496" width="34" height="14" rx="3" fill="#1a2440"/><rect x="310" y="496" width="34" height="14" rx="3" fill="#1a2440"/>
<rect x="60" y="14" width="300" height="488" rx="12" fill="url(#body)" stroke="#a8946b" stroke-width="1.5"/>
<rect x="60" y="14" width="64" height="488" rx="12" fill="url(#shine)"/>
<rect x="80" y="42" width="128" height="449" rx="7" fill="url(#drw)" stroke="#cdbb94" stroke-width="1.2"/><rect x="212" y="42" width="128" height="449" rx="7" fill="url(#drw)" stroke="#cdbb94" stroke-width="1.2"/><rect x="96" y="150" width="14" height="66" fill="#0b1f4a"/><rect x="114" y="158" width="12" height="58" fill="#c8a96a"/><rect x="130" y="146" width="16" height="70" fill="#5b6885"/><rect x="150" y="154" width="14" height="62" fill="#0b1f4a"/><rect x="228" y="150" width="16" height="66" fill="#5b6885"/><rect x="248" y="158" width="12" height="58" fill="#0b1f4a"/><rect x="266" y="146" width="14" height="70" fill="#c8a96a"/><rect x="284" y="154" width="18" height="62" fill="#5b6885"/><rect x="95" y="60" width="98" height="164" rx="4" fill="#d5e6f8" fill-opacity=".55" stroke="#8fb4ee" stroke-width="1.5"/><path d="M105 224l40 -164h16l-40 164z" fill="#fff" fill-opacity=".45"/><rect x="227" y="60" width="98" height="164" rx="4" fill="#d5e6f8" fill-opacity=".55" stroke="#8fb4ee" stroke-width="1.5"/><path d="M237 224l40 -164h16l-40 164z" fill="#fff" fill-opacity=".45"/><rect x="102.0" y="410" width="84" height="22" rx="3" fill="#0b1f4a"/><text x="144" y="425" text-anchor="middle" font-family="Poppins,Arial,sans-serif" font-size="10" font-weight="600" letter-spacing="2.5" fill="#dcc48d">ZECCO</text><path d="M96 262h98M228 262h98" stroke="#cdbb94" stroke-width="3" /><rect x="187" y="236" width="9" height="90" rx="4.5" fill="url(#gold)"/><rect x="224" y="236" width="9" height="90" rx="4.5" fill="url(#gold)"/><circle cx="210" cy="365" r="6" fill="url(#gold)"/><circle cx="210" cy="365" r="2" fill="#7a5f2e"/></svg>