<svg xmlns="http://www.w3.org/2000/svg" viewBox="0 0 420 520"><defs>
<linearGradient id="body" x1="0" y1="0" x2="1" y2="1"><stop offset="0" stop-color="#fbf6ea"/><stop offset=".55" stop-color="#e2d3b2"/><stop offset="1" stop-color="#a8946b"/></linearGradient>
<linearGradient id="drw" x1="0" y1="0" x2="0" y2="1"><stop offset="0" stop-color="#fffdf8"/><stop offset="1" stop-color="#efe4cc"/></linearGradient>
<linearGradient id="gold" x1="0" y1="0" x2="1" y2="1"><stop offset="0" stop-color="#e6d09a"/><stop offset=".5" stop-color="#c8a96a"/><stop offset="1" stop-color="#a98548"/></linearGradient>
<linearGradient id="shine" x1="0" y1="0" x2="1" y2="0"><stop offset="0" stop-color="#fff" stop-opacity=".7"/><stop offset="1" stop-color="#fff" stop-opacity="0"/></linearGradient></defs>
<rect x="76" y="496" width="34" height="14" rx="3" fill="#1a2440"/><rect x="310" y="496" width="34" height="14" rx="3" fill="#1a2440"/>
<rect x="60" y="138" width="300" height="364" rx="12" fill="url(#body)" stroke="#a8946b" stroke-width="1.5"/>
<rect x="60" y="138" width="64" height="364" rx="12" fill="url(#shine)"/>
<rect x="80" y="166.0" width="260" height="101.0" rx="7" fill="url(#drw)" stroke="#cdbb94" stroke-width="1.2"/><rect x="166.0" y="182.0" width="88" height="22" rx="3" fill="#0b1f4a"/><text x="210" y="197.0" text-anchor="middle" font-family="Poppins,Arial,sans-serif" font-size="10" font-weight="600" letter-spacing="2.5" fill="#dcc48d">ZECCO</text><rect x="150" y="225.0" width="120" height="11" rx="5.5" fill="url(#gold)"/><rect x="80" y="278.0" width="260" height="101.0" rx="7" fill="url(#drw)" stroke="#cdbb94" stroke-width="1.2"/><rect x="166.0" y="294.0" width="88" height="22" rx="3" fill="#0b1f4a"/><text x="210" y="309.0" text-anchor="middle" font-family="Poppins,Arial,sans-serif" font-size="10" font-weight="600" letter-spacing="2.5" fill="#dcc48d">ZECCO</text><rect x="150" y="337.0" width="120" height="11" rx="5.5" fill="url(#gold)"/><rect x="80" y="390.0" width="260" height="101.0" rx="7" fill="url(#drw)" stroke="#cdbb94" stroke-width="1.2"/><rect x="166.0" y="406.0" width="88" height="22" rx="3" fill="#0b1f4a"/><text x="210" y="421.0" text-anchor="middle" font-family="Poppins,Arial,sans-serif" font-size="10" font-weight="600" letter-spacing="2.5" fill="#dcc48d">ZECCO</text><rect x="150" y="449.0" width="120" height="11" rx="5.5" fill="url(#gold)"/><circle cx="322" cy="186" r="6" fill="url(#gold)"/><circle cx="322" cy="186" r="2" fill="#7a5f2e"/></svg>